PathFileType	4	(X/Y/Z)	C:\Users\Basilio\Documents\Thesis Gigler\squatting_fais\c3dfiles\073\SLS_front_pre3\markers_experimental.trc
DataRate	CameraRate	NumFrames	NumMarkers	Units	OrigDataRate	OrigDataStartFrame	OrigNumFrames
200.000000	200.000000	4	61	mm	200.000000	676	1353
Frame#	Time	FHD			LBHD			RBHD			C7			T10			CLAV			LSHO			LUUPA			LMUPA			LDUPA			LLEP			LMEP			LRAD			LUL			LRFIN			RSHO			RUPA1			RMUPA			RDUPA			RLEP			RMEP			RRAD			RUL			RUFIN			LASI			RASI			USACR			LSACR			RSACR			LTHI1			LTHI2			LTHI3			LTHI4			LLFC			LMFC			LTIB1			LTIB2			LTIB3			LTIB4			LLMAL			LMMAL			LHEE			LMT1			LMT2			LMT5			RTHI			RTHI2			RTHI3			RTHI4			RLFC			RMFC			RTIB1			RTIB2			RTIB3			RTIB4			RLMAL			RMMAL			RHEE			RMT1			RMT2			RMT5			
		X1	Y1	Z1	X2	Y2	Z2	X3	Y3	Z3	X4	Y4	Z4	X5	Y5	Z5	X6	Y6	Z6	X7	Y7	Z7	X8	Y8	Z8	X9	Y9	Z9	X10	Y10	Z10	X11	Y11	Z11	X12	Y12	Z12	X13	Y13	Z13	X14	Y14	Z14	X15	Y15	Z15	X16	Y16	Z16	X17	Y17	Z17	X18	Y18	Z18	X19	Y19	Z19	X20	Y20	Z20	X21	Y21	Z21	X22	Y22	Z22	X23	Y23	Z23	X24	Y24	Z24	X25	Y25	Z25	X26	Y26	Z26	X27	Y27	Z27	X28	Y28	Z28	X29	Y29	Z29	X30	Y30	Z30	X31	Y31	Z31	X32	Y32	Z32	X33	Y33	Z33	X34	Y34	Z34	X35	Y35	Z35	X36	Y36	Z36	X37	Y37	Z37	X38	Y38	Z38	X39	Y39	Z39	X40	Y40	Z40	X41	Y41	Z41	X42	Y42	Z42	X43	Y43	Z43	X44	Y44	Z44	X45	Y45	Z45	X46	Y46	Z46	X47	Y47	Z47	X48	Y48	Z48	X49	Y49	Z49	X50	Y50	Z50	X51	Y51	Z51	X52	Y52	Z52	X53	Y53	Z53	X54	Y54	Z54	X55	Y55	Z55	X56	Y56	Z56	X57	Y57	Z57	X58	Y58	Z58	X59	Y59	Z59	X60	Y60	Z60	X61	Y61	Z61	

677	3.38	-120.9120254516602	1346.796630859375	-795.945495605469	-256.7226867675782	1331.890991210938	-825.1718750000002	-286.3291931152344	1317.372314453125	-692.4475097656251	-318.4508056640626	1236.638916015625	-755.2846679687501	-525.6629638671876	980.7460937500002	-753.8500976562501	-229.4873352050782	1113.217529296875	-752.6913452148439	-240.8247528076172	1182.973022460938	-888.5772705078127	-165.564193725586	1110.435546875	-985.2026977539065	-124.9448013305664	1126.932006835938	-960.808532714844	-104.6588897705078	1079.3173828125	-992.7888793945315	-0.8387482762336733	1051.447265625	-993.6437988281252	-6.184998512268068	998.3037109375002	-947.9726562500002	256.7829589843751	1083.646240234375	-877.2869262695315	262.2439575195313	1079.630126953125	-951.6816406250002	336.5267028808594	1099.107666015625	-869.2373046875002	-230.953353881836	1175.33056640625	-620.0528564453126	-149.3275451660157	1084.263793945313	-512.5054931640626	-109.6620101928711	1103.85498046875	-531.8095092773439	-87.30496978759767	1054.884521484375	-505.5188598632814	4.837738513946534	1036.269165039063	-506.2369689941407	0.7553334236145022	979.757263183594	-566.3561401367189	259.1447448730469	1063.610473632813	-623.2752075195314	268.2971191406251	1075.124267578125	-547.4881591796876	345.3429565429688	1089.857299804688	-629.7483520507814	-417.8717651367189	802.0892333984377	-888.516784667969	-401.5863037109376	787.9423828125002	-643.2429199218751	-582.5231933593751	842.6479492187502	-752.7371826171876	-592.9680786132814	813.387878417969	-781.6628417968752	-592.0357055664064	808.571472167969	-726.0607910156251	-218.4480743408204	638.1583251953126	-947.6999511718752	-136.0595245361328	639.0082397460939	-925.0258789062502	-125.1570816040039	676.3018798828126	-892.7276611328127	-101.9467391967774	592.3324584960939	-914.940368652344	-50.09289932250978	566.1429443359376	-913.762390136719	-54.77938079833986	556.8294067382814	-774.4809570312502	135.9750061035157	491.6596069335939	-857.4216308593752	136.5789337158203	423.6109313964845	-912.223083496094	165.3536682128907	450.5532836914064	-890.0170898437502	227.3806304931641	404.2351684570314	-855.964782714844	287.1740112304688	284.0331726074219	-882.7852172851565	272.1036682128907	304.2985839843751	-798.209167480469	282.1317749023438	215.4011383056641	-841.3442993164065	410.4323120117189	396.1006164550782	-796.689636230469	410.2045898437501	398.7031860351564	-834.8796997070315	410.5914306640626	358.5462036132813	-889.1602172851565	-323.5292663574219	581.4274902343751	-598.9160766601564	-257.3972473144532	574.0435180664064	-603.6198120117189	-237.4711608886719	600.7356567382814	-607.0049438476564	-216.1553802490235	506.5076293945314	-630.1058959960939	-116.6239776611328	423.0399169921876	-666.1793823242189	-121.5131988525391	435.3189392089845	-796.9380493164065	-159.931884765625	287.5992126464844	-774.202819824219	-216.7339324951172	222.4180145263672	-709.2969360351564	-202.7620086669922	214.4224395751954	-753.6640014648439	-248.0117645263672	192.7823028564454	-784.7083129882815	-352.5285644531251	98.27495574951175	-728.4526367187501	-342.3789672851563	127.2835693359375	-816.0120849609377	-432.0094299316407	86.1310272216797	-783.5007324218752	-207.5958404541016	54.1506690979004	-788.872985839844	-209.8005828857422	51.97629165649415	-747.8898925781251	-255.2525787353516	35.53054428100587	-702.1833496093751	
678	3.385	-120.8621597290039	1346.728149414063	-795.9939575195315	-256.7206726074219	1331.781616210938	-825.2051391601565	-286.2919921875001	1317.335083007813	-692.4439086914064	-318.3927307128907	1236.571533203125	-755.2876586914064	-525.6587524414064	980.7068481445315	-753.8289184570314	-229.4109344482422	1113.10546875	-752.6646118164064	-240.7787780761719	1182.874267578125	-888.5415649414065	-165.576156616211	1110.341064453125	-985.1956176757815	-124.9302291870117	1126.844116210938	-960.7839355468752	-104.6701583862305	1079.223266601563	-992.7221679687502	-0.7876348495483401	1051.363037109375	-993.5885009765627	-6.14871120452881	998.1883544921877	-947.980895996094	256.8549194335938	1083.64892578125	-877.3181762695315	262.3100891113282	1079.615478515625	-951.6774902343752	336.4942016601563	1099.089233398438	-869.1864013671877	-230.8995361328126	1175.2919921875	-620.1028442382814	-149.2445526123047	1084.2841796875	-512.4807128906251	-109.6029434204102	1103.859130859375	-531.8076171875001	-87.23162841796876	1054.885986328125	-505.5588684082032	4.896851062774659	1036.271362304688	-506.2361755371095	0.8289822340011599	979.7629394531252	-566.3397827148439	259.1180419921876	1063.508056640625	-623.2245483398439	268.3258666992188	1075.122192382813	-547.4850463867189	345.4249877929688	1089.825561523438	-629.6997070312501	-417.7783203125001	802.113708496094	-888.5438232421877	-401.5859680175782	787.9070434570315	-643.2432250976564	-582.5850830078126	842.6778564453127	-752.6661376953126	-592.9816894531251	813.364440917969	-781.592224121094	-592.0244750976564	808.5407714843752	-726.0199584960939	-218.2783203125001	638.1917724609376	-947.6755981445315	-135.984115600586	638.9658813476564	-924.893493652344	-125.1475601196289	676.2929687500001	-892.6479492187502	-101.8741455078125	592.2825317382814	-914.7769775390627	-50.12031936645509	566.0855102539064	-913.6384887695315	-54.7738494873047	556.8497314453126	-774.333190917969	136.0377197265625	491.6736755371095	-857.1580200195315	136.1267395019532	423.8223266601564	-912.363220214844	165.406005859375	450.5650024414064	-889.7207031250002	227.4627990722657	404.280242919922	-855.6873779296877	287.3498840332032	284.1026611328126	-882.493835449219	272.1792297363282	304.3776855468751	-797.9517822265627	282.2361145019532	215.444076538086	-841.0916137695315	410.4659118652345	396.1918945312501	-796.294372558594	410.2882385253907	398.794158935547	-834.4993286132815	410.6840209960939	358.6336669921876	-888.7752075195315	-323.4450073242188	581.3630371093751	-598.9808349609376	-257.3461303710938	574.0089111328126	-603.7077636718751	-237.4340362548829	600.6770629882814	-607.1325683593751	-216.1510162353516	506.4616699218751	-630.1878051757814	-116.6057662963867	423.0357971191407	-666.2831420898439	-121.4534759521485	435.3019104003907	-797.0334472656252	-159.9031524658203	287.5972900390626	-774.3393554687502	-216.6702575683594	222.4001922607422	-709.3873291015626	-202.7840576171876	214.3801879882813	-753.9036865234376	-247.9542236328126	192.7685546875001	-784.8076782226565	-352.5266723632813	98.33538818359378	-728.4893798828126	-342.4118652343751	127.2665176391602	-816.088806152344	-432.0075073242189	86.13531494140626	-783.5380859375002	-207.5858001708985	54.12224578857423	-788.9290771484377	-209.7671966552735	51.85726547241212	-748.2593994140626	-255.2424468994141	35.55784988403321	-702.2253417968751	
679	3.39	-120.7556533813477	1346.652221679688	-796.0752563476565	-256.6408081054688	1331.687255859375	-825.232604980469	-286.2155456542969	1317.277954101563	-692.4151000976564	-318.3224487304688	1236.5517578125	-755.3021850585939	-525.6806030273439	980.7109375000002	-753.7774658203126	-229.4905548095704	1112.973999023438	-752.6967773437501	-240.7255096435547	1182.846069335938	-888.5774536132815	-165.5710906982422	1110.232421875	-985.1583251953127	-124.9056701660157	1126.768310546875	-960.7354736328127	-104.6191864013672	1079.090942382813	-992.7036743164065	-0.7557785511016848	1051.271728515625	-993.559509277344	-6.153872966766359	998.1320800781252	-947.9319458007815	256.8514099121094	1083.643676757813	-877.3218383789065	262.2995910644532	1079.537353515625	-951.7158813476565	336.4731445312501	1099.116943359375	-869.2032470703127	-230.8324432373047	1175.246948242188	-620.1068725585939	-149.136215209961	1084.288330078125	-512.5182495117189	-109.5309143066407	1103.826416015625	-531.8665771484376	-87.15779876708986	1054.90869140625	-505.5207824707032	4.975904464721681	1036.304077148438	-506.2031555175782	0.9015522599220278	979.742614746094	-566.3204345703126	259.1094970703126	1063.499267578125	-623.1515502929689	268.4071044921876	1075.088134765625	-547.5197753906251	345.4810485839844	1089.781372070313	-629.7174682617189	-417.8600158691407	802.0382080078127	-888.4177246093752	-401.540985107422	787.9176025390627	-643.1940917968751	-582.5885009765626	842.6254882812502	-752.6314697265626	-592.9810791015626	813.318054199219	-781.5935058593752	-591.9747314453126	808.4898681640627	-725.9931030273439	-218.2715911865235	638.1811523437501	-947.5552368164065	-135.9542846679688	638.9260864257814	-924.7679443359377	-125.1239013671875	676.2455444335939	-892.5260009765627	-101.8606338500977	592.3358764648439	-914.6024169921877	-50.07442474365236	566.0979003906251	-913.4722900390627	-54.78750228881837	556.8128051757814	-774.1209106445315	136.0858764648438	491.681121826172	-856.9852294921877	136.1296997070313	423.8331604003907	-912.1529541015627	165.4728698730469	450.6028747558595	-889.3782958984377	227.5672149658204	404.2822265625001	-855.4013671875002	287.4774169921876	284.2079772949219	-882.1929321289065	272.2286682128907	304.3788757324219	-797.684020996094	282.3175048828126	215.509750366211	-840.7366333007815	410.4616088867189	396.2986450195314	-795.756530761719	410.3036499023439	398.903533935547	-834.0095214843752	410.6279907226564	358.6683349609376	-888.214050292969	-323.4231567382813	581.3327026367189	-599.0357666015626	-257.3176879882813	573.9603881835939	-603.8034057617189	-237.4210052490235	600.6408081054689	-607.1748657226564	-216.1304779052735	506.4286499023439	-630.3297729492189	-116.5690078735352	423.0216369628907	-666.4266967773439	-121.573600769043	435.2539062500001	-797.0917968750002	-159.8894653320313	287.5709228515626	-774.4152832031252	-216.6612548828126	222.3941192626954	-709.4674682617189	-202.7766113281251	214.3819427490235	-754.0009155273439	-247.9722900390626	192.7543640136719	-784.8934326171877	-352.5333557128907	98.34635925292972	-728.5648803710939	-342.3938903808594	127.238525390625	-816.1548461914065	-431.9915771484376	86.16355133056642	-783.598327636719	-207.5267791748047	54.13651657104494	-788.8680419921877	-209.7688446044922	51.88495254516603	-748.2713012695314	-255.2754211425782	35.56799697875977	-702.2393798828126	
680	3.395	-120.7212982177735	1346.594360351563	-796.0753173828127	-256.5974731445313	1331.6552734375	-825.2186279296877	-286.1447448730469	1317.227905273438	-692.4681396484376	-318.3064270019532	1236.468627929688	-755.2931518554689	-525.6961059570314	980.6926879882815	-753.7643432617189	-229.4759521484376	1112.880126953125	-752.6607666015626	-240.7833862304688	1182.767456054688	-888.538024902344	-165.5731506347657	1110.12255859375	-985.1151123046877	-124.9400177001953	1126.648559570313	-960.7579345703127	-104.6192016601563	1078.970947265625	-992.6384887695315	-0.7273730635643006	1051.157348632813	-993.4963378906252	-6.101716041564943	998.0469970703127	-947.8794555664065	256.8397827148438	1083.624877929688	-877.2932739257815	262.2200927734376	1079.458374023438	-951.730895996094	336.4717407226563	1099.131225585938	-869.2341308593752	-230.8061981201172	1175.208984375	-620.1295166015626	-149.0997772216797	1084.285888671875	-512.4592285156251	-109.45361328125	1103.833618164063	-531.8418579101564	-87.07185363769533	1054.907592773438	-505.5243530273439	5.028774738311768	1036.30126953125	-506.2345581054689	0.9556591510772707	979.7504882812502	-566.3395996093751	259.2424011230469	1063.496826171875	-623.3069458007814	268.4474487304688	1075.14697265625	-547.4730834960939	345.5108032226563	1089.781494140625	-629.7760009765626	-417.3681945800782	802.3328857421877	-888.3668212890627	-401.585174560547	787.8514404296877	-643.2384643554689	-582.5683593750001	842.5794677734377	-752.6068725585939	-592.9846801757814	813.270202636719	-781.5554809570315	-591.9977416992189	808.447204589844	-725.9326171875001	-218.1772918701172	638.1968383789064	-947.5358886718752	-135.9214782714844	638.8530273437501	-924.6467285156252	-125.116325378418	676.1829223632814	-892.3846435546877	-101.846908569336	592.2504882812501	-914.4720458984377	-49.95555496215822	566.0360717773439	-913.2534790039065	-54.85760498046876	556.7181396484376	-773.955505371094	136.1203918457032	491.665985107422	-856.7783203125002	136.243637084961	423.9118041992189	-911.9292602539065	165.4317474365235	450.5760498046876	-889.1678466796877	227.6076965332032	404.3348083496095	-855.1488037109377	287.5676879882813	284.2774047851563	-881.8409423828127	272.2721862792969	304.4014892578126	-797.4277954101565	282.3878173828126	215.5594635009766	-840.4487304687502	410.570770263672	396.1986389160157	-795.3735351562502	410.4346923828126	398.9458007812501	-833.6985473632815	410.7666015625001	358.7797241210938	-887.8147583007815	-323.4053039550782	581.2510986328126	-599.1508789062501	-257.2931823730469	573.8917236328126	-603.8530883789064	-237.3815460205079	600.5558471679689	-607.2994384765626	-216.0881805419922	506.3611145019532	-630.4467773437501	-116.5483551025391	423.0238647460939	-666.6101684570314	-121.4956893920899	435.2633361816407	-797.2689208984377	-159.8782653808594	287.5876770019532	-774.5525512695315	-216.5926818847657	222.3663177490235	-709.6210937500001	-202.7293243408204	214.3891296386719	-754.1701660156251	-247.9622802734376	192.7517852783204	-784.974060058594	-352.4957580566407	98.382926940918	-728.6212768554689	-342.3697509765626	127.2222366333008	-816.245300292969	-432.0218200683595	86.18123626708986	-783.6118774414065	-207.5720825195313	54.07128906250001	-788.9323730468752	-209.7418365478516	51.91274642944337	-748.3262329101564	-255.271469116211	35.64633941650391	-702.2372436523439	
